<svg width="13" height="13" viewBox="0 0 13 13" fill="none" xmlns="http://www.w3.org/2000/svg">
<path fill-rule="evenodd" clip-rule="evenodd" d="M11.7812 1.625H1.21875C0.994385 1.625 0.8125 1.80688 0.8125 2.03125V11.7812C0.8125 12.0056 0.994384 12.1875 1.21875 12.1875H11.7812C12.0056 12.1875 12.1875 12.0056 12.1875 11.7812V2.03125C12.1875 1.80688 12.0056 1.625 11.7812 1.625ZM1.21875 0.8125C0.545653 0.8125 0 1.35815 0 2.03125V11.7812C0 12.4543 0.545653 13 1.21875 13H11.7812C12.4543 13 13 12.4543 13 11.7812V2.03125C13 1.35815 12.4543 0.8125 11.7812 0.8125H1.21875Z" fill="#969696"/>
<path d="M0 2.03125C0 1.35815 0.545653 0.8125 1.21875 0.8125H11.7812C12.4543 0.8125 13 1.35815 13 2.03125V3.25H0V2.03125Z" fill="#969696"/>
<path d="M2.4375 0H3.25V1.625H2.4375V0Z" fill="#969696"/>
<path d="M9.75 0H10.5625V1.625H9.75V0Z" fill="#969696"/>
</svg>
