<svg width="107" height="107" viewBox="0 0 107 107" fill="none" xmlns="http://www.w3.org/2000/svg">
<circle opacity="0.2" cx="53.5" cy="53.5" r="53.5" fill="#EB5236"/>
<circle cx="53.5556" cy="53.5556" r="47.5556" fill="#EB5236"/>
<path d="M28.295 66.3595C26.6114 66.3595 25.0213 66.1607 23.5247 65.7632C22.0516 65.3423 20.7772 64.7343 19.7015 63.9393C19.3274 63.6821 19.1052 63.3781 19.0351 63.0273C18.9649 62.6766 19 62.3492 19.1403 62.0452C19.304 61.7412 19.5378 61.5425 19.8418 61.4489C20.1458 61.332 20.4965 61.4022 20.8941 61.6594C21.9463 62.431 23.0687 62.9806 24.2613 63.3079C25.4539 63.6353 26.7984 63.799 28.295 63.799C30.3995 63.799 31.9545 63.4132 32.96 62.6415C33.9889 61.8465 34.5033 60.8059 34.5033 59.5198C34.5033 58.4909 34.1292 57.6725 33.3809 57.0645C32.656 56.4565 31.4284 55.9772 29.698 55.6264L26.0501 54.8898C23.8521 54.4222 22.2035 53.6622 21.1045 52.6099C20.0289 51.5343 19.4911 50.1079 19.4911 48.3308C19.4911 46.8576 19.8652 45.5715 20.6135 44.4725C21.3851 43.3734 22.4491 42.5199 23.8053 41.912C25.1616 41.304 26.7283 41 28.5054 41C29.9786 41 31.3465 41.2105 32.6092 41.6314C33.8953 42.0289 35.0528 42.6369 36.0817 43.4553C36.4091 43.7125 36.5961 44.0165 36.6429 44.3672C36.7131 44.6946 36.6663 44.9986 36.5026 45.2792C36.3389 45.5598 36.1051 45.7469 35.8011 45.8404C35.4971 45.9106 35.1347 45.817 34.7138 45.5598C33.7784 44.8349 32.7963 44.3205 31.7674 44.0165C30.7619 43.7125 29.6629 43.5605 28.4703 43.5605C26.623 43.5605 25.1499 43.9931 24.0509 44.8583C22.9518 45.7001 22.4023 46.8225 22.4023 48.2255C22.4023 49.3479 22.7414 50.2365 23.4195 50.8913C24.121 51.546 25.2551 52.0254 26.8218 52.3293L30.4696 53.101C32.8314 53.5921 34.5735 54.3403 35.6959 55.3458C36.8417 56.3279 37.4146 57.6725 37.4146 59.3795C37.4146 60.7591 37.0404 61.9751 36.2922 63.0273C35.5673 64.0796 34.515 64.898 33.1354 65.4826C31.7791 66.0672 30.1657 66.3595 28.295 66.3595Z" fill="#FBFBFB"/>
<path d="M43.2804 66.2893C42.3918 66.2893 41.9475 65.8217 41.9475 64.8863V42.4732C41.9475 41.5378 42.3918 41.0702 43.2804 41.0702C43.6545 41.0702 43.9468 41.152 44.1572 41.3157C44.3911 41.456 44.6015 41.7015 44.7886 42.0523L53.8731 59.169L62.9226 42.0523C63.1096 41.7015 63.3084 41.456 63.5188 41.3157C63.7293 41.152 64.0333 41.0702 64.4308 41.0702C65.296 41.0702 65.7286 41.5378 65.7286 42.4732V64.8863C65.7286 65.8217 65.2843 66.2893 64.3957 66.2893C63.5072 66.2893 63.0629 65.8217 63.0629 64.8863V46.7173L55.1358 61.6243C54.9722 61.9283 54.7968 62.1504 54.6097 62.2907C54.446 62.4077 54.2005 62.4661 53.8731 62.4661C53.5458 62.4661 53.2885 62.396 53.1015 62.2557C52.9144 62.1154 52.7507 61.9049 52.6104 61.6243L44.5782 46.7524V64.8863C44.5782 65.8217 44.1456 66.2893 43.2804 66.2893Z" fill="#FBFBFB"/>
<path d="M79.8804 66.3595C78.1968 66.3595 76.6067 66.1607 75.1102 65.7632C73.637 65.3423 72.3626 64.7343 71.2869 63.9393C70.9128 63.6821 70.6907 63.3781 70.6205 63.0273C70.5504 62.6766 70.5854 62.3492 70.7257 62.0452C70.8894 61.7412 71.1233 61.5425 71.4272 61.4489C71.7312 61.332 72.082 61.4022 72.4795 61.6594C73.5318 62.431 74.6542 62.9806 75.8467 63.3079C77.0393 63.6353 78.3839 63.799 79.8804 63.799C81.9849 63.799 83.5399 63.4132 84.5454 62.6415C85.5743 61.8465 86.0887 60.8059 86.0887 59.5198C86.0887 58.4909 85.7146 57.6725 84.9663 57.0645C84.2414 56.4565 83.0138 55.9772 81.2834 55.6264L77.6356 54.8898C75.4375 54.4222 73.789 53.6622 72.69 52.6099C71.6143 51.5343 71.0765 50.1079 71.0765 48.3308C71.0765 46.8576 71.4506 45.5715 72.1989 44.4725C72.9706 43.3734 74.0345 42.5199 75.3908 41.912C76.747 41.304 78.3137 41 80.0909 41C81.564 41 82.932 41.2105 84.1947 41.6314C85.4808 42.0289 86.6383 42.6369 87.6671 43.4553C87.9945 43.7125 88.1816 44.0165 88.2283 44.3672C88.2985 44.6946 88.2517 44.9986 88.088 45.2792C87.9244 45.5598 87.6905 45.7469 87.3865 45.8404C87.0826 45.9106 86.7201 45.817 86.2992 45.5598C85.3639 44.8349 84.3817 44.3205 83.3529 44.0165C82.3474 43.7125 81.2483 43.5605 80.0558 43.5605C78.2085 43.5605 76.7353 43.9931 75.6363 44.8583C74.5373 45.7001 73.9878 46.8225 73.9878 48.2255C73.9878 49.3479 74.3268 50.2365 75.0049 50.8913C75.7064 51.546 76.8405 52.0254 78.4072 52.3293L82.0551 53.101C84.4168 53.5921 86.1589 54.3403 87.2813 55.3458C88.4271 56.3279 89 57.6725 89 59.3795C89 60.7591 88.6259 61.9751 87.8776 63.0273C87.1527 64.0796 86.1004 64.898 84.7208 65.4826C83.3646 66.0672 81.7511 66.3595 79.8804 66.3595Z" fill="#FBFBFB"/>
</svg>
