<svg width="24" height="24" viewBox="0 0 24 24" fill="none" xmlns="http://www.w3.org/2000/svg">
<path fill-rule="evenodd" clip-rule="evenodd" d="M12.9933 2.51118C12.9977 2.46638 13 2.42095 13 2.375C13 1.61561 12.3844 1 11.625 1C10.8656 1 10.25 1.61561 10.25 2.375C10.25 2.42095 10.2523 2.46638 10.2567 2.51118C7.11526 3.1456 4.75 5.92158 4.75 9.25C4.75 9.25 4.75 9.9375 4.0625 14.0625C3.375 18.1875 2 18.875 2 18.875H4.75H18.5H21.25C21.25 18.875 19.875 18.1875 19.1875 14.0625C18.5 9.9375 18.5 9.25 18.5 9.25C18.5 5.92158 16.1347 3.1456 12.9933 2.51118Z" fill="white"/>
<path d="M11.625 23C13.1438 23 14.375 21.7688 14.375 20.25H8.875C8.875 21.7688 10.1062 23 11.625 23Z" fill="white"/>
</svg>
