<svg width="73" height="24" viewBox="0 0 73 24" fill="none" xmlns="http://www.w3.org/2000/svg">
<path d="M31.6462 23.6H25.6895L29.4124 0.414295H35.3696L31.6462 23.6ZM20.6784 0.414295L14.9996 16.3616L14.3277 12.9275L14.3283 12.9288L12.324 2.5019C12.324 2.5019 12.0816 0.414295 9.49832 0.414295H0.110161L0 0.806883C0 0.806883 2.87092 1.4122 6.23083 3.45701L11.4059 23.6006H17.6123L27.0892 0.414295H20.6784ZM67.5305 23.6H73L68.2313 0.413675H63.4429C61.2317 0.413675 60.6932 2.14156 60.6932 2.14156L51.8093 23.6H58.0187L59.2605 20.156H66.8328L67.5305 23.6ZM60.9759 15.3984L64.1057 6.72176L65.8665 15.3984H60.9759ZM52.2751 5.98992L53.1251 1.01093C53.1251 1.01093 50.5021 0 47.7676 0C44.8116 0 37.7919 1.30925 37.7919 7.67563C37.7919 13.6656 46.0308 13.74 46.0308 16.8863C46.0308 20.0326 38.6408 19.4688 36.202 17.4848L35.3164 22.6908C35.3164 22.6908 37.9762 24 42.0399 24C46.1048 24 52.2371 21.8671 52.2371 16.062C52.2371 10.0336 43.9242 9.47236 43.9242 6.85138C43.9249 4.22979 49.726 4.56655 52.2751 5.98992Z" fill="#2566AF"/>
<path d="M14.3283 12.9285L12.324 2.50166C12.324 2.50166 12.0816 0.414062 9.49834 0.414062H0.110161L0 0.806651C0 0.806651 4.51232 1.75432 8.84043 5.30498C12.9788 8.69873 14.3283 12.9285 14.3283 12.9285Z" fill="#E6A540"/>
</svg>
